<?xml version="1.0" standalone="no"?><!DOCTYPE svg PUBLIC "-//W3C//DTD SVG 1.1//EN" "http://www.w3.org/Graphics/SVG/1.1/DTD/svg11.dtd"><svg t="1757484213691" class="icon" viewBox="0 0 1024 1024" version="1.1" xmlns="http://www.w3.org/2000/svg" p-id="1777" xmlns:xlink="http://www.w3.org/1999/xlink" width="200" height="200"><path d="M512 149.333333a362.666667 362.666667 0 1 1 0 725.333334 362.666667 362.666667 0 0 1 0-725.333334zM512 213.333333a298.666667 298.666667 0 1 0 0 597.333334 298.666667 298.666667 0 0 0 0-597.333334z m198.528 141.525334c12.330667 11.946667 12.586667 31.658667 0.597333 43.946666l-236.885333 243.498667a24.277333 24.277333 0 0 1-34.858667-0.042667l-105.941333-109.653333a31.061333 31.061333 0 0 1 44.672-43.178667l61.482667 63.488c9.514667 9.813333 25.301333 9.813333 34.816 0.042667l192.213333-197.461333a31.061333 31.061333 0 0 1 43.904-0.64z" p-id="1778" fill="#52c41a"></path></svg>