<?xml version="1.0" standalone="no"?><!DOCTYPE svg PUBLIC "-//W3C//DTD SVG 1.1//EN" "http://www.w3.org/Graphics/SVG/1.1/DTD/svg11.dtd"><svg t="1757484266960" class="icon" viewBox="0 0 1024 1024" version="1.1" xmlns="http://www.w3.org/2000/svg" p-id="2573" xmlns:xlink="http://www.w3.org/1999/xlink" width="200" height="200"><path d="M512 149.333333a362.666667 362.666667 0 1 1 0 725.333334 362.666667 362.666667 0 0 1 0-725.333334zM512 213.333333a298.666667 298.666667 0 1 0 0 597.333334 298.666667 298.666667 0 0 0 0-597.333334z m108.245333 147.84a32 32 0 1 1 45.013334 45.525334l-108.202667 106.666666 108.330667 108.8a32 32 0 1 1-45.312 45.184l-108.501334-108.970666-107.434666 105.898666a32 32 0 1 1-44.970667-45.525333l107.221333-105.728-106.112-106.496a32 32 0 1 1 45.312-45.226667l106.282667 106.752z" p-id="2574" fill="#ff4d4f"></path></svg>