<?xml version="1.0" standalone="no"?><!DOCTYPE svg PUBLIC "-//W3C//DTD SVG 1.1//EN" "http://www.w3.org/Graphics/SVG/1.1/DTD/svg11.dtd"><svg t="1757484247274" class="icon" viewBox="0 0 1024 1024" version="1.1" xmlns="http://www.w3.org/2000/svg" p-id="2147" xmlns:xlink="http://www.w3.org/1999/xlink" width="200" height="200"><path d="M512 149.333333a362.666667 362.666667 0 1 1 0 725.333334 362.666667 362.666667 0 0 1 0-725.333334zM512 213.333333a298.666667 298.666667 0 1 0 0 597.333334 298.666667 298.666667 0 0 0 0-597.333334z m0 234.666667a42.666667 42.666667 0 0 1 42.666667 42.666667v202.666666a42.666667 42.666667 0 0 1-85.333334 0V490.666667a42.666667 42.666667 0 0 1 42.666667-42.666667z m0-128a42.666667 42.666667 0 1 1 0 85.333333 42.666667 42.666667 0 0 1 0-85.333333z" p-id="2148" fill="#faad14"></path></svg>